<svg xmlns="http://www.w3.org/2000/svg" xmlns:xlink="http://www.w3.org/1999/xlink" width="256" zoomAndPan="magnify" viewBox="0 0 192 191.999996" height="256" preserveAspectRatio="xMidYMid meet" version="1.2"><defs><clipPath id="afee473fb8"><path d="M 96 0 C 42.980469 0 0 42.980469 0 96 C 0 149.019531 42.980469 192 96 192 C 149.019531 192 192 149.019531 192 96 C 192 42.980469 149.019531 0 96 0 Z M 96 0 "/></clipPath><clipPath id="2b8feb5a05"><path d="M 29.953125 29.382812 L 90.703125 29.382812 L 90.703125 162.882812 L 29.953125 162.882812 Z M 29.953125 29.382812 "/></clipPath><clipPath id="323093d78f"><path d="M 94.589844 14.957031 L 99.777344 14.957031 L 99.777344 177.042969 L 94.589844 177.042969 Z M 94.589844 14.957031 "/></clipPath><clipPath id="97edfaf0cf"><path d="M 103.527344 29.382812 L 166.527344 29.382812 L 166.527344 162.882812 L 103.527344 162.882812 Z M 103.527344 29.382812 "/></clipPath></defs><g id="737d0c3137"><g clip-rule="nonzero" clip-path="url(#afee473fb8)"><rect x="0" width="192" y="0" height="191.999996" style="fill:#ffde59;fill-opacity:1;stroke:none;"/></g><g clip-rule="nonzero" clip-path="url(#2b8feb5a05)"><path style=" stroke:none;fill-rule:nonzero;fill:#000000;fill-opacity:1;" d="M 95.007812 87.15625 L 80.527344 83.953125 C 64.910156 80.5 58.910156 75.292969 58.910156 67.113281 C 58.910156 56.75 66.875 49.703125 82.078125 49.703125 C 94.746094 49.703125 103.035156 55.601562 105.988281 64.089844 C 106.207031 64.710938 106.40625 65.347656 106.550781 66.003906 C 106.683594 66.613281 106.792969 67.167969 106.878906 67.652344 C 107.125 69.03125 108.328125 70.015625 109.722656 70.015625 L 128.410156 70.015625 C 129.210938 70.015625 129.980469 69.683594 130.527344 69.089844 C 131.074219 68.5 131.355469 67.707031 131.296875 66.90625 C 129.691406 44.46875 110.167969 29.390625 82.710938 29.390625 C 52.886719 29.390625 32.847656 45.324219 32.847656 69.039062 C 32.847656 87.15625 46.589844 98.113281 69.449219 103.082031 L 85.761719 106.707031 C 101.902344 110.332031 108.140625 115.472656 108.140625 124.238281 C 108.140625 134.433594 98.0625 142.558594 83.230469 142.558594 C 69.609375 142.558594 59.503906 136.832031 55.960938 128.445312 C 55.371094 126.953125 54.960938 125.558594 54.6875 124.472656 C 54.359375 123.167969 53.207031 122.246094 51.871094 122.246094 L 32.847656 122.246094 C 32.039062 122.246094 31.261719 122.585938 30.714844 123.183594 C 30.167969 123.78125 29.894531 124.578125 29.964844 125.390625 C 31.867188 148.160156 52.230469 162.871094 81.835938 162.871094 C 114.136719 162.871094 134.203125 147.304688 134.203125 122.246094 C 134.203125 103.703125 120.574219 92.71875 95.007812 87.15625 Z M 95.007812 87.15625 "/></g><g clip-rule="nonzero" clip-path="url(#323093d78f)"><path style=" stroke:none;fill-rule:nonzero;fill:#000000;fill-opacity:1;" d="M 94.589844 14.957031 L 99.777344 14.957031 L 99.777344 177.042969 L 94.589844 177.042969 Z M 94.589844 14.957031 "/></g><g clip-rule="nonzero" clip-path="url(#97edfaf0cf)"><path style=" stroke:none;fill-rule:nonzero;fill:#000000;fill-opacity:1;" d="M 127.15625 162.882812 L 106.027344 162.882812 C 104.359375 162.882812 103.007812 161.523438 103.007812 159.847656 L 103.007812 50.621094 L 66.789062 50.621094 C 65.121094 50.621094 63.769531 49.261719 63.769531 47.585938 L 63.769531 32.414062 C 63.769531 30.742188 65.121094 29.382812 66.789062 29.382812 L 166.390625 29.382812 C 168.0625 29.382812 169.410156 30.742188 169.410156 32.414062 L 169.410156 47.585938 C 169.410156 49.261719 168.0625 50.621094 166.390625 50.621094 L 130.171875 50.621094 L 130.171875 159.847656 C 130.171875 161.523438 128.824219 162.882812 127.15625 162.882812 Z M 127.15625 162.882812 "/></g></g></svg>